# xmcd
#
# Track frame offsets: 
#        150
#        27062
#        54912
#        82184
#        122663
#        144118
#        178147
#        214065
#        238098
#        265676
#
# Disc length: 4001 seconds
#
# Revision: 1
# Processed by: cddbd v1.5.2PL0 Copyright (c) Steve Scherf et al.
# Submitted via: ExactAudioCopy v0.99pb5
#
DISCID=830f9f0a
DTITLE=John Broadway Tucker and Leszek Cichonski - John Tucker Leszek Ci
DTITLE=chonski
DYEAR=2005
DGENRE=Blues
TTITLE0=Messing With The Kid
TTITLE1=Driving Wheel
TTITLE2=Unchain My Heart
TTITLE3=Call My Job
TTITLE4=If You Love Me
TTITLE5=Back To Mississippi
TTITLE6=I Can't Afford 2
TTITLE7=Just A Little Bit
TTITLE8=Come Together
TTITLE9=Woman I Love
EXTD=
EXTT0=
EXTT1=
EXTT2=
EXTT3=
EXTT4=
EXTT5=
EXTT6=
EXTT7=
EXTT8=
EXTT9=
PLAYORDER=
